<svg width="900" height="500" viewBox="0 0 900 500" fill="none" xmlns="http://www.w3.org/2000/svg">
  <defs>
    <linearGradient id="cardGrad" x1="0" y1="0" x2="0" y2="1"><stop offset="0%" stop-color="#1E1B4B"/><stop offset="100%" stop-color="#312E81"/></linearGradient>
    <filter id="shadow"><feDropShadow dx="0" dy="4" stdDeviation="8" flood-color="#000" flood-opacity="0.3"/></filter>
    <marker id="arrowhead" markerWidth="10" markerHeight="7" refX="10" refY="3.5" orient="auto"><polygon points="0 0, 10 3.5, 0 7" fill="#6366F1"/></marker>
  </defs>
  <rect width="900" height="500" rx="12" fill="#0F172A"/>
  <text x="450" y="45" text-anchor="middle" font-family="system-ui, sans-serif" font-size="20" font-weight="600" fill="#E2E8F0">How saaslens works</text>
  <g filter="url(#shadow)"><rect x="60" y="80" width="200" height="100" rx="12" fill="url(#cardGrad)" stroke="#4F46E5" stroke-width="1"/><text x="160" y="118" text-anchor="middle" font-family="system-ui, sans-serif" font-size="13" fill="#A5B4FC">DATA SOURCE</text><text x="160" y="155" text-anchor="middle" font-family="system-ui, sans-serif" font-size="14" font-weight="600" fill="white">Card / ERP Payments</text></g>
  <g filter="url(#shadow)"><rect x="350" y="80" width="200" height="100" rx="12" fill="url(#cardGrad)" stroke="#4F46E5" stroke-width="1"/><text x="450" y="118" text-anchor="middle" font-family="system-ui, sans-serif" font-size="13" fill="#A5B4FC">DATA SOURCE</text><text x="450" y="155" text-anchor="middle" font-family="system-ui, sans-serif" font-size="14" font-weight="600" fill="white">Browser Extension</text></g>
  <g filter="url(#shadow)"><rect x="640" y="80" width="200" height="100" rx="12" fill="url(#cardGrad)" stroke="#4F46E5" stroke-width="1"/><text x="740" y="118" text-anchor="middle" font-family="system-ui, sans-serif" font-size="13" fill="#A5B4FC">DATA SOURCE</text><text x="740" y="155" text-anchor="middle" font-family="system-ui, sans-serif" font-size="14" font-weight="600" fill="white">Google Workspace SSO</text></g>
  <line x1="160" y1="180" x2="160" y2="220" stroke="#6366F1" stroke-width="2"/><line x1="450" y1="180" x2="450" y2="220" stroke="#6366F1" stroke-width="2"/><line x1="740" y1="180" x2="740" y2="220" stroke="#6366F1" stroke-width="2"/>
  <g filter="url(#shadow)"><rect x="60" y="220" width="200" height="100" rx="12" fill="#1E3A5F" stroke="#3B82F6" stroke-width="1"/><text x="160" y="258" text-anchor="middle" font-family="system-ui, sans-serif" font-size="13" fill="#93C5FD">PROCESSING</text><text x="160" y="282" text-anchor="middle" font-family="system-ui, sans-serif" font-size="16" font-weight="700" fill="white">Matcher</text><text x="160" y="302" text-anchor="middle" font-family="system-ui, sans-serif" font-size="12" fill="#93C5FD">payment → app</text></g>
  <g filter="url(#shadow)"><rect x="350" y="220" width="200" height="100" rx="12" fill="#1E3A5F" stroke="#3B82F6" stroke-width="1"/><text x="450" y="258" text-anchor="middle" font-family="system-ui, sans-serif" font-size="13" fill="#93C5FD">PROCESSING</text><text x="450" y="282" text-anchor="middle" font-family="system-ui, sans-serif" font-size="16" font-weight="700" fill="white">Usage Tracker</text><text x="450" y="302" text-anchor="middle" font-family="system-ui, sans-serif" font-size="12" fill="#93C5FD">login capture</text></g>
  <g filter="url(#shadow)"><rect x="640" y="220" width="200" height="100" rx="12" fill="#1E3A5F" stroke="#3B82F6" stroke-width="1"/><text x="740" y="258" text-anchor="middle" font-family="system-ui, sans-serif" font-size="13" fill="#93C5FD">PROCESSING</text><text x="740" y="282" text-anchor="middle" font-family="system-ui, sans-serif" font-size="16" font-weight="700" fill="white">SSO Sync</text><text x="740" y="302" text-anchor="middle" font-family="system-ui, sans-serif" font-size="12" fill="#93C5FD">user provisioning</text></g>
  <line x1="160" y1="320" x2="160" y2="360" stroke="#6366F1" stroke-width="2"/><line x1="450" y1="320" x2="450" y2="360" stroke="#6366F1" stroke-width="2"/><line x1="740" y1="320" x2="740" y2="360" stroke="#6366F1" stroke-width="2"/>
  <path d="M160 350 L450 360" stroke="#6366F1" stroke-width="1.5" opacity="0.5"/><path d="M740 350 L450 360" stroke="#6366F1" stroke-width="1.5" opacity="0.5"/>
  <g filter="url(#shadow)"><rect x="150" y="360" width="600" height="120" rx="16" fill="#1a1a2e" stroke="#6366F1" stroke-width="2"/><text x="450" y="395" text-anchor="middle" font-family="system-ui, sans-serif" font-size="18" font-weight="700" fill="white">saaslens Dashboard</text>
    <g font-family="system-ui, sans-serif" font-size="12">
      <rect x="180" y="410" width="120" height="50" rx="8" fill="#312E81" stroke="#4F46E5" stroke-width="1"/><text x="240" y="432" text-anchor="middle" fill="#C7D2FE" font-weight="600">Subscriptions</text><text x="240" y="448" text-anchor="middle" fill="#818CF8" font-size="11">apps &amp; seats</text>
      <rect x="320" y="410" width="120" height="50" rx="8" fill="#312E81" stroke="#4F46E5" stroke-width="1"/><text x="380" y="432" text-anchor="middle" fill="#C7D2FE" font-weight="600">Cost Analytics</text><text x="380" y="448" text-anchor="middle" fill="#818CF8" font-size="11">spend &amp; trends</text>
      <rect x="460" y="410" width="120" height="50" rx="8" fill="#312E81" stroke="#4F46E5" stroke-width="1"/><text x="520" y="432" text-anchor="middle" fill="#C7D2FE" font-weight="600">Reports</text><text x="520" y="448" text-anchor="middle" fill="#818CF8" font-size="11">dept &amp; team</text>
      <rect x="600" y="410" width="120" height="50" rx="8" fill="#312E81" stroke="#4F46E5" stroke-width="1"/><text x="660" y="432" text-anchor="middle" fill="#C7D2FE" font-weight="600">AI Agent</text><text x="660" y="448" text-anchor="middle" fill="#818CF8" font-size="11">recommendations</text>
    </g>
  </g>
</svg>
