<svg width="240" height="38" viewBox="0 0 240 38" fill="none" xmlns="http://www.w3.org/2000/svg">
<path d="M68.351 35.534L68.351 35.534Q65.672 35.534 63.608 34.769Q61.544 34.006 60.235 32.546Q58.925 31.089 58.548 29.025L58.548 29.025L64.084 28.072Q64.521 29.620 65.612 30.394Q66.704 31.167 68.529 31.167L68.529 31.167Q70.236 31.167 71.218 30.522Q72.201 29.878 72.201 28.885L72.201 28.885Q72.201 28.013 71.496 27.456Q70.791 26.901 69.343 26.604L69.343 26.604L65.513 25.810Q62.298 25.155 60.711 23.578Q59.123 22.000 59.123 19.519L59.123 19.519Q59.123 17.376 60.294 15.838Q61.465 14.300 63.548 13.467Q65.632 12.634 68.450 12.634L68.450 12.634Q71.069 12.634 72.994 13.358Q74.918 14.082 76.110 15.412Q77.300 16.741 77.697 18.547L77.697 18.547L72.419 19.479Q72.081 18.349 71.119 17.624Q70.156 16.900 68.529 16.900L68.529 16.900Q67.061 16.900 66.069 17.515Q65.076 18.131 65.076 19.162L65.076 19.162Q65.076 19.995 65.721 20.572Q66.366 21.147 67.933 21.464L67.933 21.464L71.922 22.258Q75.137 22.912 76.705 24.391Q78.273 25.869 78.273 28.250L78.273 28.250Q78.273 30.433 77.002 32.070Q75.733 33.707 73.500 34.620Q71.267 35.534 68.351 35.534ZM88.492 35.534L88.492 35.534Q86.389 35.534 84.711 34.789Q83.035 34.045 82.072 32.567Q81.110 31.089 81.110 28.885L81.110 28.885Q81.110 27.040 81.794 25.790Q82.480 24.540 83.660 23.786Q84.841 23.032 86.340 22.635Q87.837 22.238 89.484 22.079L89.484 22.079Q91.409 21.881 92.589 21.712Q93.770 21.543 94.316 21.176Q94.863 20.809 94.863 20.095L94.863 20.095L94.863 19.995Q94.863 19.043 94.465 18.389Q94.069 17.733 93.284 17.386Q92.500 17.038 91.389 17.038L91.389 17.038Q90.238 17.038 89.385 17.386Q88.532 17.733 87.996 18.308Q87.460 18.884 87.202 19.599L87.202 19.599L81.745 18.706Q82.321 16.762 83.650 15.412Q84.979 14.063 86.954 13.348Q88.929 12.634 91.409 12.634L91.409 12.634Q93.195 12.634 94.882 13.060Q96.568 13.486 97.908 14.380Q99.248 15.273 100.031 16.711Q100.815 18.150 100.815 20.154L100.815 20.154L100.815 35.097L95.180 35.097L95.180 32.021L94.981 32.021Q94.445 33.053 93.552 33.837Q92.659 34.620 91.399 35.076Q90.139 35.534 88.492 35.534ZM90.179 31.346L90.179 31.346Q91.587 31.346 92.649 30.790Q93.711 30.235 94.306 29.283Q94.902 28.330 94.902 27.159L94.902 27.159L94.902 24.758Q94.644 24.957 94.108 25.116Q93.572 25.274 92.917 25.393Q92.263 25.512 91.628 25.611Q90.993 25.710 90.496 25.770L90.496 25.770Q89.405 25.928 88.571 26.287Q87.738 26.644 87.282 27.229Q86.825 27.814 86.825 28.726L86.825 28.726Q86.825 29.580 87.262 30.165Q87.698 30.751 88.453 31.049Q89.206 31.346 90.179 31.346ZM112.086 35.534L112.086 35.534Q109.983 35.534 108.305 34.789Q106.629 34.045 105.666 32.567Q104.705 31.089 104.705 28.885L104.705 28.885Q104.705 27.040 105.390 25.790Q106.074 24.540 107.254 23.786Q108.435 23.032 109.934 22.635Q111.431 22.238 113.078 22.079L113.078 22.079Q115.003 21.881 116.185 21.712Q117.364 21.543 117.910 21.176Q118.457 20.809 118.457 20.095L118.457 20.095L118.457 19.995Q118.457 19.043 118.059 18.389Q117.663 17.733 116.878 17.386Q116.094 17.038 114.983 17.038L114.983 17.038Q113.833 17.038 112.979 17.386Q112.126 17.733 111.590 18.308Q111.055 18.884 110.796 19.599L110.796 19.599L105.340 18.706Q105.915 16.762 107.245 15.412Q108.573 14.063 110.548 13.348Q112.523 12.634 115.003 12.634L115.003 12.634Q116.789 12.634 118.476 13.060Q120.162 13.486 121.502 14.380Q122.842 15.273 123.625 16.711Q124.409 18.150 124.409 20.154L124.409 20.154L124.409 35.097L118.774 35.097L118.774 32.021L118.575 32.021Q118.040 33.053 117.146 33.837Q116.253 34.620 114.993 35.076Q113.733 35.534 112.086 35.534ZM113.773 31.346L113.773 31.346Q115.183 31.346 116.243 30.790Q117.305 30.235 117.900 29.283Q118.496 28.330 118.496 27.159L118.496 27.159L118.496 24.758Q118.238 24.957 117.702 25.116Q117.166 25.274 116.511 25.393Q115.857 25.512 115.222 25.611Q114.587 25.710 114.090 25.770L114.090 25.770Q112.999 25.928 112.166 26.287Q111.332 26.644 110.876 27.229Q110.420 27.814 110.420 28.726L110.420 28.726Q110.420 29.580 110.856 30.165Q111.293 30.751 112.047 31.049Q112.801 31.346 113.773 31.346ZM138.300 35.534L138.300 35.534Q135.621 35.534 133.557 34.769Q131.493 34.006 130.184 32.546Q128.874 31.089 128.497 29.025L128.497 29.025L134.033 28.072Q134.470 29.620 135.561 30.394Q136.653 31.167 138.478 31.167L138.478 31.167Q140.185 31.167 141.167 30.522Q142.150 29.878 142.150 28.885L142.150 28.885Q142.150 28.013 141.445 27.456Q140.741 26.901 139.292 26.604L139.292 26.604L135.462 25.810Q132.248 25.155 130.660 23.578Q129.072 22.000 129.072 19.519L129.072 19.519Q129.072 17.376 130.243 15.838Q131.414 14.300 133.497 13.467Q135.581 12.634 138.399 12.634L138.399 12.634Q141.018 12.634 142.943 13.358Q144.869 14.082 146.059 15.412Q147.250 16.741 147.646 18.547L147.646 18.547L142.368 19.479Q142.030 18.349 141.068 17.624Q140.106 16.900 138.478 16.900L138.478 16.900Q137.010 16.900 136.018 17.515Q135.026 18.131 135.026 19.162L135.026 19.162Q135.026 19.995 135.670 20.572Q136.315 21.147 137.884 21.464L137.884 21.464L141.872 22.258Q145.086 22.912 146.654 24.391Q148.222 25.869 148.222 28.250L148.222 28.250Q148.222 30.433 146.952 32.070Q145.682 33.707 143.449 34.620Q141.218 35.534 138.300 35.534ZM152.250 5.530L158.204 5.530L158.204 35.097L152.250 35.097L152.250 5.530ZM173.285 35.534L173.285 35.534Q169.892 35.534 167.430 34.144Q164.970 32.755 163.651 30.196Q162.331 27.635 162.331 24.123L162.331 24.123Q162.331 20.690 163.641 18.110Q164.950 15.531 167.352 14.082Q169.752 12.634 172.987 12.634L172.987 12.634Q175.170 12.634 177.054 13.328Q178.940 14.022 180.369 15.422Q181.798 16.820 182.600 18.924Q183.404 21.028 183.404 23.885L183.404 23.885L183.404 25.551L164.771 25.551L164.771 21.821L180.487 21.821L177.710 22.813Q177.710 21.087 177.184 19.807Q176.658 18.527 175.615 17.822Q174.574 17.119 173.046 17.119L173.046 17.119Q171.498 17.119 170.417 17.832Q169.335 18.547 168.780 19.768Q168.224 20.988 168.224 22.555L168.224 22.555L168.224 25.194Q168.224 27.120 168.869 28.429Q169.514 29.738 170.675 30.394Q171.836 31.049 173.384 31.049L173.384 31.049Q174.436 31.049 175.289 30.751Q176.143 30.454 176.747 29.868Q177.353 29.283 177.670 28.429L177.670 28.429L183.068 29.441Q182.532 31.266 181.202 32.646Q179.873 34.025 177.879 34.779Q175.883 35.534 173.285 35.534ZM193.426 22.258L193.426 22.258L193.426 35.097L187.472 35.097L187.472 12.911L193.088 12.911L193.187 18.448L192.830 18.448Q193.704 15.669 195.480 14.152Q197.256 12.634 200.073 12.634L200.073 12.634Q202.376 12.634 204.091 13.636Q205.808 14.638 206.751 16.513Q207.693 18.389 207.693 20.988L207.693 20.988L207.693 35.097L201.741 35.097L201.741 22.019Q201.741 19.956 200.679 18.785Q199.617 17.614 197.733 17.614L197.733 17.614Q196.482 17.614 195.500 18.160Q194.517 18.706 193.972 19.737Q193.426 20.770 193.426 22.258ZM221.584 35.534L221.584 35.534Q218.905 35.534 216.841 34.769Q214.777 34.006 213.468 32.546Q212.158 31.089 211.781 29.025L211.781 29.025L217.317 28.072Q217.754 29.620 218.846 30.394Q219.937 31.167 221.762 31.167L221.762 31.167Q223.469 31.167 224.452 30.522Q225.434 29.878 225.434 28.885L225.434 28.885Q225.434 28.013 224.729 27.456Q224.025 26.901 222.576 26.604L222.576 26.604L218.746 25.810Q215.532 25.155 213.944 23.578Q212.357 22.000 212.357 19.519L212.357 19.519Q212.357 17.376 213.528 15.838Q214.698 14.300 216.783 13.467Q218.865 12.634 221.683 12.634L221.683 12.634Q224.302 12.634 226.227 13.358Q228.153 14.082 229.343 15.412Q230.534 16.741 230.930 18.547L230.930 18.547L225.652 19.479Q225.314 18.349 224.352 17.624Q223.390 16.900 221.762 16.900L221.762 16.900Q220.294 16.900 219.302 17.515Q218.310 18.131 218.310 19.162L218.310 19.162Q218.310 19.995 218.954 20.572Q219.599 21.147 221.168 21.464L221.168 21.464L225.156 22.258Q228.371 22.912 229.938 24.391Q231.506 25.869 231.506 28.250L231.506 28.250Q231.506 30.433 230.236 32.070Q228.966 33.707 226.733 34.620Q224.502 35.534 221.584 35.534" fill="white"/>
<path d="M24.8447 9.28889C21.7453 9.28889 18.6761 9.41433 15.8126 9.65833C12.9491 9.90234 10.3471 10.2601 8.1554 10.711C5.96371 11.1619 4.225 11.6974 3.03887 12.2865C1.85278 12.8756 1.24223 13.5068 1.24223 14.1444C1.24223 14.7821 1.85278 15.4133 3.03887 16.0024C4.225 16.5915 5.96371 17.127 8.1554 17.5779C10.3471 18.0288 12.9491 18.3865 15.8126 18.6306C18.3182 18.8441 20.9812 18.9669 23.6841 18.9942L24.8447 19V28.7111C21.5821 28.7111 18.3514 28.3399 15.3371 27.6184C12.3228 26.897 9.58374 25.8397 7.2767 24.5066C4.96975 23.1736 3.13981 21.591 1.89125 19.8494C0.642691 18.1077 1.03708e-07 16.2408 0 14.3556C0 12.4704 0.642691 10.6034 1.89125 8.86172C3.13981 7.1201 4.96975 5.53748 7.2767 4.20449C9.58374 2.87146 12.3228 1.8141 15.3371 1.09266C18.3514 0.371238 21.5821 0 24.8447 0V9.28889Z" fill="white"/>
<path d="M24.8447 28.7111C27.9441 28.7111 31.0133 28.5857 33.8768 28.3417C36.7403 28.0977 39.3423 27.7399 41.534 27.289C43.7257 26.8381 45.4644 26.3026 46.6505 25.7135C47.8366 25.1244 48.4472 24.4932 48.4472 23.8556C48.4472 23.2179 47.8366 22.5867 46.6505 21.9976C45.4644 21.4085 43.7257 20.873 41.534 20.4221C39.3423 19.9713 36.7403 19.6135 33.8768 19.3694C31.3712 19.1559 28.7082 19.0331 26.0052 19.0058L24.8447 19V9.28889C28.1073 9.28889 31.338 9.66013 34.3523 10.3816C37.3666 11.103 40.1057 12.1603 42.4127 13.4934C44.7196 14.8264 46.5496 16.409 47.7981 18.1506C49.0467 19.8923 49.6894 21.7592 49.6894 23.6444C49.6894 25.5296 49.0467 27.3966 47.7981 29.1383C46.5496 30.8799 44.7196 32.4625 42.4127 33.7955C40.1057 35.1285 37.3666 36.1859 34.3523 36.9073C31.338 37.6288 28.1073 38 24.8447 38V28.7111Z" fill="white"/>
</svg>
