<svg width="170" height="28" viewBox="0 0 170 28" fill="none" xmlns="http://www.w3.org/2000/svg">
<path d="M47.755 24.364L47.755 24.364Q45.924 24.364 44.514 23.842Q43.105 23.320 42.210 22.324Q41.315 21.327 41.058 19.918L41.058 19.918L44.840 19.266Q45.138 20.324 45.883 20.853Q46.629 21.382 47.876 21.382L47.876 21.382Q49.042 21.382 49.714 20.941Q50.385 20.501 50.385 19.823L50.385 19.823Q50.385 19.226 49.903 18.846Q49.422 18.466 48.433 18.263L48.433 18.263L45.815 17.722Q43.619 17.274 42.535 16.196Q41.450 15.118 41.450 13.423L41.450 13.423Q41.450 11.960 42.250 10.910Q43.050 9.858 44.474 9.289Q45.897 8.720 47.822 8.720L47.822 8.720Q49.611 8.720 50.926 9.215Q52.241 9.709 53.055 10.618Q53.868 11.525 54.139 12.760L54.139 12.760L50.534 13.397Q50.303 12.625 49.645 12.130Q48.988 11.634 47.876 11.634L47.876 11.634Q46.873 11.634 46.195 12.054Q45.517 12.474 45.517 13.180L45.517 13.180Q45.517 13.749 45.958 14.143Q46.398 14.535 47.470 14.752L47.470 14.752L50.194 15.295Q52.390 15.742 53.462 16.753Q54.533 17.762 54.533 19.389L54.533 19.389Q54.533 20.881 53.665 21.999Q52.798 23.117 51.272 23.740Q49.748 24.364 47.755 24.364ZM61.515 24.364L61.515 24.364Q60.077 24.364 58.931 23.855Q57.787 23.348 57.129 22.337Q56.472 21.327 56.472 19.823L56.472 19.823Q56.472 18.562 56.939 17.708Q57.407 16.854 58.213 16.339Q59.020 15.824 60.043 15.552Q61.067 15.281 62.192 15.173L62.192 15.173Q63.507 15.038 64.314 14.921Q65.120 14.807 65.494 14.555Q65.866 14.306 65.866 13.817L65.866 13.817L65.866 13.749Q65.866 13.099 65.595 12.651Q65.323 12.204 64.788 11.967Q64.253 11.730 63.493 11.730L63.493 11.730Q62.707 11.730 62.124 11.967Q61.541 12.204 61.175 12.597Q60.809 12.991 60.634 13.478L60.634 13.478L56.906 12.868Q57.298 11.539 58.207 10.618Q59.114 9.695 60.463 9.208Q61.812 8.720 63.507 8.720L63.507 8.720Q64.728 8.720 65.880 9.011Q67.032 9.303 67.947 9.913Q68.862 10.523 69.397 11.505Q69.933 12.488 69.933 13.858L69.933 13.858L69.933 24.066L66.083 24.066L66.083 21.965L65.948 21.965Q65.582 22.670 64.971 23.205Q64.362 23.740 63.501 24.052Q62.639 24.364 61.515 24.364ZM62.667 21.504L62.667 21.504Q63.630 21.504 64.354 21.124Q65.080 20.744 65.486 20.094Q65.894 19.443 65.894 18.643L65.894 18.643L65.894 17.002Q65.717 17.139 65.351 17.247Q64.985 17.356 64.537 17.437Q64.090 17.519 63.656 17.585Q63.222 17.654 62.884 17.694L62.884 17.694Q62.138 17.803 61.569 18.046Q61.000 18.291 60.688 18.691Q60.376 19.091 60.376 19.714L60.376 19.714Q60.376 20.298 60.674 20.698Q60.972 21.096 61.487 21.301Q62.003 21.504 62.667 21.504ZM77.633 24.364L77.633 24.364Q76.197 24.364 75.051 23.855Q73.905 23.348 73.247 22.337Q72.590 21.327 72.590 19.823L72.590 19.823Q72.590 18.562 73.058 17.708Q73.525 16.854 74.333 16.339Q75.139 15.824 76.163 15.552Q77.186 15.281 78.311 15.173L78.311 15.173Q79.626 15.038 80.433 14.921Q81.240 14.807 81.612 14.555Q81.985 14.306 81.985 13.817L81.985 13.817L81.985 13.749Q81.985 13.099 81.714 12.651Q81.443 12.204 80.908 11.967Q80.371 11.730 79.613 11.730L79.613 11.730Q78.827 11.730 78.244 11.967Q77.661 12.204 77.295 12.597Q76.929 12.991 76.752 13.478L76.752 13.478L73.024 12.868Q73.416 11.539 74.325 10.618Q75.234 9.695 76.583 9.208Q77.932 8.720 79.626 8.720L79.626 8.720Q80.846 8.720 81.998 9.011Q83.150 9.303 84.065 9.913Q84.981 10.523 85.517 11.505Q86.052 12.488 86.052 13.858L86.052 13.858L86.052 24.066L82.201 24.066L82.201 21.965L82.066 21.965Q81.700 22.670 81.091 23.205Q80.480 23.740 79.619 24.052Q78.759 24.364 77.633 24.364ZM78.785 21.504L78.785 21.504Q79.748 21.504 80.474 21.124Q81.199 20.744 81.606 20.094Q82.012 19.443 82.012 18.643L82.012 18.643L82.012 17.002Q81.835 17.139 81.469 17.247Q81.103 17.356 80.657 17.437Q80.209 17.519 79.776 17.585Q79.342 17.654 79.002 17.694L79.002 17.694Q78.256 17.803 77.687 18.046Q77.118 18.291 76.806 18.691Q76.495 19.091 76.495 19.714L76.495 19.714Q76.495 20.298 76.792 20.698Q77.091 21.096 77.606 21.301Q78.121 21.504 78.785 21.504ZM95.542 24.364L95.542 24.364Q93.712 24.364 92.301 23.842Q90.891 23.320 89.997 22.324Q89.102 21.327 88.844 19.918L88.844 19.918L92.627 19.266Q92.926 20.324 93.670 20.853Q94.416 21.382 95.663 21.382L95.663 21.382Q96.829 21.382 97.501 20.941Q98.172 20.501 98.172 19.823L98.172 19.823Q98.172 19.226 97.690 18.846Q97.209 18.466 96.220 18.263L96.220 18.263L93.603 17.722Q91.406 17.274 90.322 16.196Q89.238 15.118 89.238 13.423L89.238 13.423Q89.238 11.960 90.037 10.910Q90.837 9.858 92.261 9.289Q93.684 8.720 95.609 8.720L95.609 8.720Q97.398 8.720 98.713 9.215Q100.028 9.709 100.842 10.618Q101.655 11.525 101.926 12.760L101.926 12.760L98.321 13.397Q98.090 12.625 97.432 12.130Q96.775 11.634 95.663 11.634L95.663 11.634Q94.661 11.634 93.982 12.054Q93.304 12.474 93.304 13.180L93.304 13.180Q93.304 13.749 93.745 14.143Q94.186 14.535 95.257 14.752L95.257 14.752L97.981 15.295Q100.178 15.742 101.249 16.753Q102.320 17.762 102.320 19.389L102.320 19.389Q102.320 20.881 101.452 21.999Q100.585 23.117 99.059 23.740Q97.535 24.364 95.542 24.364ZM105.073 3.866L109.139 3.866L109.139 24.066L105.073 24.066L105.073 3.866ZM119.442 24.364L119.442 24.364Q117.123 24.364 115.442 23.415Q113.761 22.466 112.860 20.718Q111.959 18.969 111.959 16.570L111.959 16.570Q111.959 14.224 112.854 12.462Q113.749 10.699 115.388 9.709Q117.029 8.720 119.238 8.720L119.238 8.720Q120.730 8.720 122.017 9.194Q123.306 9.669 124.281 10.624Q125.258 11.580 125.807 13.017Q126.356 14.454 126.356 16.407L126.356 16.407L126.356 17.545L113.626 17.545L113.626 14.996L124.363 14.996L122.465 15.675Q122.465 14.495 122.106 13.620Q121.746 12.746 121.034 12.265Q120.323 11.784 119.279 11.784L119.279 11.784Q118.221 11.784 117.483 12.271Q116.745 12.760 116.365 13.594Q115.985 14.427 115.985 15.498L115.985 15.498L115.985 17.302Q115.985 18.617 116.425 19.511Q116.866 20.406 117.660 20.853Q118.452 21.301 119.510 21.301L119.510 21.301Q120.228 21.301 120.811 21.096Q121.394 20.893 121.808 20.493Q122.221 20.094 122.438 19.511L122.438 19.511L126.125 20.202Q125.759 21.450 124.851 22.391Q123.943 23.334 122.580 23.849Q121.217 24.364 119.442 24.364ZM133.202 15.295L133.202 15.295L133.202 24.066L129.135 24.066L129.135 8.909L132.972 8.909L133.040 12.691L132.795 12.691Q133.392 10.793 134.605 9.757Q135.819 8.720 137.743 8.720L137.743 8.720Q139.316 8.720 140.488 9.404Q141.662 10.089 142.305 11.370Q142.949 12.651 142.949 14.427L142.949 14.427L142.949 24.066L138.883 24.066L138.883 15.132Q138.883 13.723 138.157 12.922Q137.431 12.122 136.144 12.122L136.144 12.122Q135.290 12.122 134.618 12.496Q133.947 12.868 133.575 13.574Q133.202 14.278 133.202 15.295ZM152.439 24.364L152.439 24.364Q150.609 24.364 149.198 23.842Q147.789 23.320 146.894 22.324Q145.999 21.327 145.742 19.918L145.742 19.918L149.524 19.266Q149.822 20.324 150.568 20.853Q151.313 21.382 152.560 21.382L152.560 21.382Q153.726 21.382 154.398 20.941Q155.069 20.501 155.069 19.823L155.069 19.823Q155.069 19.226 154.587 18.846Q154.106 18.466 153.117 18.263L153.117 18.263L150.501 17.722Q148.304 17.274 147.220 16.196Q146.135 15.118 146.135 13.423L146.135 13.423Q146.135 11.960 146.934 10.910Q147.734 9.858 149.158 9.289Q150.581 8.720 152.506 8.720L152.506 8.720Q154.296 8.720 155.611 9.215Q156.926 9.709 157.740 10.618Q158.552 11.525 158.824 12.760L158.824 12.760L155.218 13.397Q154.987 12.625 154.330 12.130Q153.672 11.634 152.560 11.634L152.560 11.634Q151.557 11.634 150.879 12.054Q150.202 12.474 150.202 13.180L150.202 13.180Q150.202 13.749 150.642 14.143Q151.083 14.535 152.154 14.752L152.154 14.752L154.879 15.295Q157.076 15.742 158.146 16.753Q159.217 17.762 159.217 19.389L159.217 19.389Q159.217 20.881 158.349 21.999Q157.482 23.117 155.956 23.740Q154.432 24.364 152.439 24.364" fill="#6366F1"/>
<path d="M47.755 24.364L47.755 24.364Q45.924 24.364 44.514 23.842Q43.105 23.320 42.210 22.324Q41.315 21.327 41.058 19.918L41.058 19.918L44.840 19.266Q45.138 20.324 45.883 20.853Q46.629 21.382 47.876 21.382L47.876 21.382Q49.042 21.382 49.714 20.941Q50.385 20.501 50.385 19.823L50.385 19.823Q50.385 19.226 49.903 18.846Q49.422 18.466 48.433 18.263L48.433 18.263L45.815 17.722Q43.619 17.274 42.535 16.196Q41.450 15.118 41.450 13.423L41.450 13.423Q41.450 11.960 42.250 10.910Q43.050 9.858 44.474 9.289Q45.897 8.720 47.822 8.720L47.822 8.720Q49.611 8.720 50.926 9.215Q52.241 9.709 53.055 10.618Q53.868 11.525 54.139 12.760L54.139 12.760L50.534 13.397Q50.303 12.625 49.645 12.130Q48.988 11.634 47.876 11.634L47.876 11.634Q46.873 11.634 46.195 12.054Q45.517 12.474 45.517 13.180L45.517 13.180Q45.517 13.749 45.958 14.143Q46.398 14.535 47.470 14.752L47.470 14.752L50.194 15.295Q52.390 15.742 53.462 16.753Q54.533 17.762 54.533 19.389L54.533 19.389Q54.533 20.881 53.665 21.999Q52.798 23.117 51.272 23.740Q49.748 24.364 47.755 24.364ZM61.515 24.364L61.515 24.364Q60.077 24.364 58.931 23.855Q57.787 23.348 57.129 22.337Q56.472 21.327 56.472 19.823L56.472 19.823Q56.472 18.562 56.939 17.708Q57.407 16.854 58.213 16.339Q59.020 15.824 60.043 15.552Q61.067 15.281 62.192 15.173L62.192 15.173Q63.507 15.038 64.314 14.921Q65.120 14.807 65.494 14.555Q65.866 14.306 65.866 13.817L65.866 13.817L65.866 13.749Q65.866 13.099 65.595 12.651Q65.323 12.204 64.788 11.967Q64.253 11.730 63.493 11.730L63.493 11.730Q62.707 11.730 62.124 11.967Q61.541 12.204 61.175 12.597Q60.809 12.991 60.634 13.478L60.634 13.478L56.906 12.868Q57.298 11.539 58.207 10.618Q59.114 9.695 60.463 9.208Q61.812 8.720 63.507 8.720L63.507 8.720Q64.728 8.720 65.880 9.011Q67.032 9.303 67.947 9.913Q68.862 10.523 69.397 11.505Q69.933 12.488 69.933 13.858L69.933 13.858L69.933 24.066L66.083 24.066L66.083 21.965L65.948 21.965Q65.582 22.670 64.971 23.205Q64.362 23.740 63.501 24.052Q62.639 24.364 61.515 24.364ZM62.667 21.504L62.667 21.504Q63.630 21.504 64.354 21.124Q65.080 20.744 65.486 20.094Q65.894 19.443 65.894 18.643L65.894 18.643L65.894 17.002Q65.717 17.139 65.351 17.247Q64.985 17.356 64.537 17.437Q64.090 17.519 63.656 17.585Q63.222 17.654 62.884 17.694L62.884 17.694Q62.138 17.803 61.569 18.046Q61.000 18.291 60.688 18.691Q60.376 19.091 60.376 19.714L60.376 19.714Q60.376 20.298 60.674 20.698Q60.972 21.096 61.487 21.301Q62.003 21.504 62.667 21.504ZM77.633 24.364L77.633 24.364Q76.197 24.364 75.051 23.855Q73.905 23.348 73.247 22.337Q72.590 21.327 72.590 19.823L72.590 19.823Q72.590 18.562 73.058 17.708Q73.525 16.854 74.333 16.339Q75.139 15.824 76.163 15.552Q77.186 15.281 78.311 15.173L78.311 15.173Q79.626 15.038 80.433 14.921Q81.240 14.807 81.612 14.555Q81.985 14.306 81.985 13.817L81.985 13.817L81.985 13.749Q81.985 13.099 81.714 12.651Q81.443 12.204 80.908 11.967Q80.371 11.730 79.613 11.730L79.613 11.730Q78.827 11.730 78.244 11.967Q77.661 12.204 77.295 12.597Q76.929 12.991 76.752 13.478L76.752 13.478L73.024 12.868Q73.416 11.539 74.325 10.618Q75.234 9.695 76.583 9.208Q77.932 8.720 79.626 8.720L79.626 8.720Q80.846 8.720 81.998 9.011Q83.150 9.303 84.065 9.913Q84.981 10.523 85.517 11.505Q86.052 12.488 86.052 13.858L86.052 13.858L86.052 24.066L82.201 24.066L82.201 21.965L82.066 21.965Q81.700 22.670 81.091 23.205Q80.480 23.740 79.619 24.052Q78.759 24.364 77.633 24.364ZM78.785 21.504L78.785 21.504Q79.748 21.504 80.474 21.124Q81.199 20.744 81.606 20.094Q82.012 19.443 82.012 18.643L82.012 18.643L82.012 17.002Q81.835 17.139 81.469 17.247Q81.103 17.356 80.657 17.437Q80.209 17.519 79.776 17.585Q79.342 17.654 79.002 17.694L79.002 17.694Q78.256 17.803 77.687 18.046Q77.118 18.291 76.806 18.691Q76.495 19.091 76.495 19.714L76.495 19.714Q76.495 20.298 76.792 20.698Q77.091 21.096 77.606 21.301Q78.121 21.504 78.785 21.504ZM95.542 24.364L95.542 24.364Q93.712 24.364 92.301 23.842Q90.891 23.320 89.997 22.324Q89.102 21.327 88.844 19.918L88.844 19.918L92.627 19.266Q92.926 20.324 93.670 20.853Q94.416 21.382 95.663 21.382L95.663 21.382Q96.829 21.382 97.501 20.941Q98.172 20.501 98.172 19.823L98.172 19.823Q98.172 19.226 97.690 18.846Q97.209 18.466 96.220 18.263L96.220 18.263L93.603 17.722Q91.406 17.274 90.322 16.196Q89.238 15.118 89.238 13.423L89.238 13.423Q89.238 11.960 90.037 10.910Q90.837 9.858 92.261 9.289Q93.684 8.720 95.609 8.720L95.609 8.720Q97.398 8.720 98.713 9.215Q100.028 9.709 100.842 10.618Q101.655 11.525 101.926 12.760L101.926 12.760L98.321 13.397Q98.090 12.625 97.432 12.130Q96.775 11.634 95.663 11.634L95.663 11.634Q94.661 11.634 93.982 12.054Q93.304 12.474 93.304 13.180L93.304 13.180Q93.304 13.749 93.745 14.143Q94.186 14.535 95.257 14.752L95.257 14.752L97.981 15.295Q100.178 15.742 101.249 16.753Q102.320 17.762 102.320 19.389L102.320 19.389Q102.320 20.881 101.452 21.999Q100.585 23.117 99.059 23.740Q97.535 24.364 95.542 24.364ZM105.073 3.866L109.139 3.866L109.139 24.066L105.073 24.066L105.073 3.866ZM119.442 24.364L119.442 24.364Q117.123 24.364 115.442 23.415Q113.761 22.466 112.860 20.718Q111.959 18.969 111.959 16.570L111.959 16.570Q111.959 14.224 112.854 12.462Q113.749 10.699 115.388 9.709Q117.029 8.720 119.238 8.720L119.238 8.720Q120.730 8.720 122.017 9.194Q123.306 9.669 124.281 10.624Q125.258 11.580 125.807 13.017Q126.356 14.454 126.356 16.407L126.356 16.407L126.356 17.545L113.626 17.545L113.626 14.996L124.363 14.996L122.465 15.675Q122.465 14.495 122.106 13.620Q121.746 12.746 121.034 12.265Q120.323 11.784 119.279 11.784L119.279 11.784Q118.221 11.784 117.483 12.271Q116.745 12.760 116.365 13.594Q115.985 14.427 115.985 15.498L115.985 15.498L115.985 17.302Q115.985 18.617 116.425 19.511Q116.866 20.406 117.660 20.853Q118.452 21.301 119.510 21.301L119.510 21.301Q120.228 21.301 120.811 21.096Q121.394 20.893 121.808 20.493Q122.221 20.094 122.438 19.511L122.438 19.511L126.125 20.202Q125.759 21.450 124.851 22.391Q123.943 23.334 122.580 23.849Q121.217 24.364 119.442 24.364ZM133.202 15.295L133.202 15.295L133.202 24.066L129.135 24.066L129.135 8.909L132.972 8.909L133.040 12.691L132.795 12.691Q133.392 10.793 134.605 9.757Q135.819 8.720 137.743 8.720L137.743 8.720Q139.316 8.720 140.488 9.404Q141.662 10.089 142.305 11.370Q142.949 12.651 142.949 14.427L142.949 14.427L142.949 24.066L138.883 24.066L138.883 15.132Q138.883 13.723 138.157 12.922Q137.431 12.122 136.144 12.122L136.144 12.122Q135.290 12.122 134.618 12.496Q133.947 12.868 133.575 13.574Q133.202 14.278 133.202 15.295ZM152.439 24.364L152.439 24.364Q150.609 24.364 149.198 23.842Q147.789 23.320 146.894 22.324Q145.999 21.327 145.742 19.918L145.742 19.918L149.524 19.266Q149.822 20.324 150.568 20.853Q151.313 21.382 152.560 21.382L152.560 21.382Q153.726 21.382 154.398 20.941Q155.069 20.501 155.069 19.823L155.069 19.823Q155.069 19.226 154.587 18.846Q154.106 18.466 153.117 18.263L153.117 18.263L150.501 17.722Q148.304 17.274 147.220 16.196Q146.135 15.118 146.135 13.423L146.135 13.423Q146.135 11.960 146.934 10.910Q147.734 9.858 149.158 9.289Q150.581 8.720 152.506 8.720L152.506 8.720Q154.296 8.720 155.611 9.215Q156.926 9.709 157.740 10.618Q158.552 11.525 158.824 12.760L158.824 12.760L155.218 13.397Q154.987 12.625 154.330 12.130Q153.672 11.634 152.560 11.634L152.560 11.634Q151.557 11.634 150.879 12.054Q150.202 12.474 150.202 13.180L150.202 13.180Q150.202 13.749 150.642 14.143Q151.083 14.535 152.154 14.752L152.154 14.752L154.879 15.295Q157.076 15.742 158.146 16.753Q159.217 17.762 159.217 19.389L159.217 19.389Q159.217 20.881 158.349 21.999Q157.482 23.117 155.956 23.740Q154.432 24.364 152.439 24.364" fill="#6474F3"/>
<path d="M17.3913 6.35556C15.2217 6.35556 13.0733 6.44138 11.0688 6.60833C9.06437 6.77529 7.24294 7.0201 5.70878 7.32858C4.1746 7.63708 2.9575 8.00348 2.12721 8.40655C1.29695 8.80962 0.869564 9.24151 0.869564 9.67778C0.869565 10.114 1.29695 10.5459 2.12721 10.949C2.9575 11.3521 4.1746 11.7185 5.70878 12.027C7.24294 12.3355 9.06437 12.5803 11.0688 12.7472C12.8227 12.8933 14.6868 12.9773 16.5789 12.9961L17.3913 13V19.6444C15.1074 19.6444 12.846 19.3904 10.736 18.8968C8.62594 18.4032 6.70862 17.6798 5.09369 16.7677C3.47882 15.8556 2.19786 14.7728 1.32388 13.5812C0.449884 12.3895 7.25958e-08 11.1121 0 9.82222C0 8.53235 0.449884 7.25497 1.32388 6.06328C2.19786 4.87165 3.47882 3.7888 5.09369 2.87676C6.70862 1.96468 8.62594 1.24123 10.736 0.747613C12.846 0.254005 15.1074 0 17.3913 0V6.35556Z" fill="#6366F1"/>
<path d="M17.3913 6.35556C15.2217 6.35556 13.0733 6.44138 11.0688 6.60833C9.06437 6.77529 7.24294 7.0201 5.70878 7.32858C4.1746 7.63708 2.9575 8.00348 2.12721 8.40655C1.29695 8.80962 0.869564 9.24151 0.869564 9.67778C0.869565 10.114 1.29695 10.5459 2.12721 10.949C2.9575 11.3521 4.1746 11.7185 5.70878 12.027C7.24294 12.3355 9.06437 12.5803 11.0688 12.7472C12.8227 12.8933 14.6868 12.9773 16.5789 12.9961L17.3913 13V19.6444C15.1074 19.6444 12.846 19.3904 10.736 18.8968C8.62594 18.4032 6.70862 17.6798 5.09369 16.7677C3.47882 15.8556 2.19786 14.7728 1.32388 13.5812C0.449884 12.3895 7.25958e-08 11.1121 0 9.82222C0 8.53235 0.449884 7.25497 1.32388 6.06328C2.19786 4.87165 3.47882 3.7888 5.09369 2.87676C6.70862 1.96468 8.62594 1.24123 10.736 0.747613C12.846 0.254005 15.1074 0 17.3913 0V6.35556Z" fill="#6474F3"/>
<path d="M17.3913 19.6444C19.5609 19.6444 21.7093 19.5586 23.7137 19.3917C25.7182 19.2247 27.5396 18.9799 29.0738 18.6714C30.608 18.3629 31.8251 17.9965 32.6554 17.5934C33.4856 17.1904 33.913 16.7585 33.913 16.3222C33.913 15.886 33.4856 15.4541 32.6554 15.051C31.8251 14.6479 30.608 14.2815 29.0738 13.973C27.5396 13.6645 25.7182 13.4197 23.7137 13.2528C21.9598 13.1067 20.0958 13.0227 18.2037 13.004L17.3913 13V6.35556C19.6751 6.35556 21.9366 6.60956 24.0466 7.10317C26.1566 7.59678 28.074 8.32024 29.6889 9.23231C31.3038 10.1444 32.5847 11.2272 33.4587 12.4188C34.3327 13.6105 34.7826 14.8879 34.7826 16.1778C34.7826 17.4677 34.3327 18.745 33.4587 19.9367C32.5847 21.1284 31.3038 22.2112 29.6889 23.1232C28.074 24.0353 26.1566 24.7588 24.0466 25.2524C21.9366 25.746 19.6751 26 17.3913 26V19.6444Z" fill="#6366F1"/>
<path d="M17.3913 19.6444C19.5609 19.6444 21.7093 19.5586 23.7137 19.3917C25.7182 19.2247 27.5396 18.9799 29.0738 18.6714C30.608 18.3629 31.8251 17.9965 32.6554 17.5934C33.4856 17.1904 33.913 16.7585 33.913 16.3222C33.913 15.886 33.4856 15.4541 32.6554 15.051C31.8251 14.6479 30.608 14.2815 29.0738 13.973C27.5396 13.6645 25.7182 13.4197 23.7137 13.2528C21.9598 13.1067 20.0958 13.0227 18.2037 13.004L17.3913 13V6.35556C19.6751 6.35556 21.9366 6.60956 24.0466 7.10317C26.1566 7.59678 28.074 8.32024 29.6889 9.23231C31.3038 10.1444 32.5847 11.2272 33.4587 12.4188C34.3327 13.6105 34.7826 14.8879 34.7826 16.1778C34.7826 17.4677 34.3327 18.745 33.4587 19.9367C32.5847 21.1284 31.3038 22.2112 29.6889 23.1232C28.074 24.0353 26.1566 24.7588 24.0466 25.2524C21.9366 25.746 19.6751 26 17.3913 26V19.6444Z" fill="#6474F3"/>
</svg>
