<svg width="180" height="180" viewBox="0 0 180 180" fill="none" xmlns="http://www.w3.org/2000/svg">
<rect width="180" height="180" rx="45" fill="#6366F1"/>
<rect width="180" height="180" rx="45" fill="#6474F3"/>
<path d="M90 67C81.5792 67 73.2408 67.2971 65.4609 67.875C57.6811 68.4529 50.6117 69.3003 44.6572 70.3682C38.7027 71.436 33.9788 72.7044 30.7562 74.0996C27.5338 75.4948 25.875 76.9898 25.875 78.5C25.875 80.0102 27.5338 81.5052 30.7562 82.9004C33.9788 84.2956 38.7027 85.564 44.6572 86.6318C50.6117 87.6997 57.6811 88.5471 65.4609 89.125C72.2683 89.6307 79.5033 89.9215 86.8469 89.9863L90 90V113C81.1358 113 72.3584 112.121 64.1689 110.412C55.9795 108.703 48.5379 106.199 42.2699 103.042C36.0022 99.8849 31.0305 96.1366 27.6383 92.0117C24.2461 87.8866 22.5 83.4649 22.5 79C22.5 74.5351 24.2461 70.1134 27.6383 65.9883C31.0305 61.8634 36.0022 58.1151 42.2699 54.958C48.5379 51.8008 55.9795 49.2966 64.1689 47.5879C72.3584 45.8792 81.1358 45 90 45V67Z" fill="white"/>
<path d="M90 113C98.4208 113 106.759 112.703 114.539 112.125C122.319 111.547 129.388 110.7 135.343 109.632C141.297 108.564 146.021 107.296 149.244 105.9C152.466 104.505 154.125 103.01 154.125 101.5C154.125 99.9898 152.466 98.4948 149.244 97.0996C146.021 95.7044 141.297 94.436 135.343 93.3682C129.388 92.3003 122.319 91.4529 114.539 90.875C107.732 90.3693 100.497 90.0785 93.1531 90.0137L90 90V67C98.8642 67 107.642 67.8792 115.831 69.5879C124.021 71.2966 131.462 73.8008 137.73 76.958C143.998 80.1151 148.97 83.8634 152.362 87.9883C155.754 92.1134 157.5 96.5351 157.5 101C157.5 105.465 155.754 109.887 152.362 114.012C148.97 118.137 143.998 121.885 137.73 125.042C131.462 128.199 124.021 130.703 115.831 132.412C107.642 134.121 98.8642 135 90 135V113Z" fill="white"/>
</svg>
